<svg width="20" height="15" viewBox="0 0 20 15" fill="none" xmlns="http://www.w3.org/2000/svg">
  <path d="M7.49984 1.16669H17.4998C17.7209 1.16669 17.9328 1.25448 18.0891 1.41076C18.2454 1.56705 18.3332 1.77901 18.3332 2.00002V12.8334C18.3332 13.0544 18.2454 13.2663 18.0891 13.4226C17.9328 13.5789 17.7209 13.6667 17.4998 13.6667H7.49984M7.49984 1.16669H2.49984C2.27882 1.16669 2.06686 1.25448 1.91058 1.41076C1.7543 1.56705 1.6665 1.77901 1.6665 2.00002V12.8334C1.6665 13.0544 1.7543 13.2663 1.91058 13.4226C2.06686 13.5789 2.27882 13.6667 2.49984 13.6667H7.49984M7.49984 1.16669V13.6667" stroke="#101828" stroke-width="1.5" />
  <path d="M4.58301 4.08335V5.75002M15.4163 3.66669L10.4163 10.75" stroke="#101828" stroke-width="1.5" stroke-linecap="round" stroke-linejoin="round" />
  <path d="M5.41667 8.25002C5.41667 7.78978 5.04357 7.41669 4.58333 7.41669C4.1231 7.41669 3.75 7.78978 3.75 8.25002C3.75 8.71026 4.1231 9.08335 4.58333 9.08335C5.04357 9.08335 5.41667 8.71026 5.41667 8.25002Z" fill="#101828" />
  <path d="M5.41667 10.75C5.41667 10.2898 5.04357 9.91669 4.58333 9.91669C4.1231 9.91669 3.75 10.2898 3.75 10.75C3.75 11.2103 4.1231 11.5834 4.58333 11.5834C5.04357 11.5834 5.41667 11.2103 5.41667 10.75Z" fill="#101828" />
</svg>